<mxfile host="app.diagrams.net" modified="2020-11-30T15:02:51.793Z" agent="5.0 (Macintosh; Intel Mac OS X 10_15_7) AppleWebKit/605.1.15 (KHTML, like Gecko) Version/14.0.1 Safari/605.1.15" etag="Sf6zWwufJIIE07lUrSHQ" version="13.10.4" type="github">
  <diagram name="Page-1" id="e7e014a7-5840-1c2e-5031-d8a46d1fe8dd">
    <mxGraphModel dx="2066" dy="842" grid="1" gridSize="10" guides="1" tooltips="1" connect="1" arrows="1" fold="1" page="1" pageScale="1" pageWidth="1169" pageHeight="826" background="#ffffff" math="0" shadow="0">
      <root>
        <mxCell id="0" />
        <mxCell id="1" parent="0" />
        <mxCell id="2" value="Клиент" style="swimlane;whiteSpace=wrap" parent="1" vertex="1">
          <mxGeometry x="164.5" y="128" width="280" height="792" as="geometry" />
        </mxCell>
        <mxCell id="5" value="" style="ellipse;shape=startState;fillColor=#000000;strokeColor=#ff0000;" parent="2" vertex="1">
          <mxGeometry x="100" y="40" width="30" height="30" as="geometry" />
        </mxCell>
        <mxCell id="6" value="" style="edgeStyle=elbowEdgeStyle;elbow=horizontal;verticalAlign=bottom;endArrow=open;endSize=8;strokeColor=#FF0000;endFill=1;rounded=0" parent="2" source="5" target="7" edge="1">
          <mxGeometry x="100" y="40" as="geometry">
            <mxPoint x="115" y="110" as="targetPoint" />
          </mxGeometry>
        </mxCell>
        <mxCell id="7" value="Обращение к &#xa;администратору" style="" parent="2" vertex="1">
          <mxGeometry x="60" y="110" width="110" height="50" as="geometry" />
        </mxCell>
        <mxCell id="UzI9dB23VL0UUhLrd2TG-141" style="edgeStyle=orthogonalEdgeStyle;rounded=0;orthogonalLoop=1;jettySize=auto;html=1;entryX=0.5;entryY=0;entryDx=0;entryDy=0;" edge="1" parent="2" source="UzI9dB23VL0UUhLrd2TG-135" target="UzI9dB23VL0UUhLrd2TG-140">
          <mxGeometry relative="1" as="geometry" />
        </mxCell>
        <mxCell id="UzI9dB23VL0UUhLrd2TG-135" value="Получение реквизитов" style="whiteSpace=wrap;html=1;" vertex="1" parent="2">
          <mxGeometry x="65.5" y="662" width="120" height="60" as="geometry" />
        </mxCell>
        <mxCell id="UzI9dB23VL0UUhLrd2TG-140" value="" style="ellipse;shape=endState;fillColor=#000000;strokeColor=#ff0000" vertex="1" parent="2">
          <mxGeometry x="110.5" y="752" width="30" height="30" as="geometry" />
        </mxCell>
        <mxCell id="3" value="Система" style="swimlane;whiteSpace=wrap" parent="1" vertex="1">
          <mxGeometry x="444.5" y="128" width="280" height="792" as="geometry" />
        </mxCell>
        <mxCell id="UzI9dB23VL0UUhLrd2TG-116" value="Создание клиента" style="" vertex="1" parent="3">
          <mxGeometry x="70.5" y="202" width="125" height="50" as="geometry" />
        </mxCell>
        <mxCell id="UzI9dB23VL0UUhLrd2TG-118" value="Предложение &#xa;завести участок" style="" vertex="1" parent="3">
          <mxGeometry x="70.5" y="292" width="125" height="50" as="geometry" />
        </mxCell>
        <mxCell id="UzI9dB23VL0UUhLrd2TG-119" value="" style="edgeStyle=orthogonalEdgeStyle;rounded=0;orthogonalLoop=1;jettySize=auto;html=1;" edge="1" parent="3" source="UzI9dB23VL0UUhLrd2TG-116" target="UzI9dB23VL0UUhLrd2TG-118">
          <mxGeometry relative="1" as="geometry" />
        </mxCell>
        <mxCell id="UzI9dB23VL0UUhLrd2TG-126" value="Создание нового участка" style="rounded=0;whiteSpace=wrap;html=1;" vertex="1" parent="3">
          <mxGeometry x="75.5" y="382" width="120" height="60" as="geometry" />
        </mxCell>
        <mxCell id="UzI9dB23VL0UUhLrd2TG-128" value="Связка с клиентом" style="rounded=0;whiteSpace=wrap;html=1;" vertex="1" parent="3">
          <mxGeometry x="75.5" y="472" width="120" height="60" as="geometry" />
        </mxCell>
        <mxCell id="UzI9dB23VL0UUhLrd2TG-129" value="" style="edgeStyle=orthogonalEdgeStyle;rounded=0;orthogonalLoop=1;jettySize=auto;html=1;" edge="1" parent="3" source="UzI9dB23VL0UUhLrd2TG-126" target="UzI9dB23VL0UUhLrd2TG-128">
          <mxGeometry relative="1" as="geometry" />
        </mxCell>
        <mxCell id="UzI9dB23VL0UUhLrd2TG-130" value="Формирование уведомления" style="rounded=0;whiteSpace=wrap;html=1;" vertex="1" parent="3">
          <mxGeometry x="75.5" y="572" width="120" height="60" as="geometry" />
        </mxCell>
        <mxCell id="UzI9dB23VL0UUhLrd2TG-131" value="" style="edgeStyle=orthogonalEdgeStyle;rounded=0;orthogonalLoop=1;jettySize=auto;html=1;" edge="1" parent="3" source="UzI9dB23VL0UUhLrd2TG-128" target="UzI9dB23VL0UUhLrd2TG-130">
          <mxGeometry relative="1" as="geometry" />
        </mxCell>
        <mxCell id="UzI9dB23VL0UUhLrd2TG-132" value="Отправка уведомления" style="rounded=0;whiteSpace=wrap;html=1;" vertex="1" parent="3">
          <mxGeometry x="75.5" y="662" width="120" height="60" as="geometry" />
        </mxCell>
        <mxCell id="UzI9dB23VL0UUhLrd2TG-133" value="" style="edgeStyle=orthogonalEdgeStyle;rounded=0;orthogonalLoop=1;jettySize=auto;html=1;" edge="1" parent="3" source="UzI9dB23VL0UUhLrd2TG-130" target="UzI9dB23VL0UUhLrd2TG-132">
          <mxGeometry relative="1" as="geometry" />
        </mxCell>
        <mxCell id="4" value="Администратор" style="swimlane;whiteSpace=wrap" parent="1" vertex="1">
          <mxGeometry x="724.5" y="128" width="280" height="792" as="geometry" />
        </mxCell>
        <mxCell id="UzI9dB23VL0UUhLrd2TG-112" value="Заключение &#xa;договора" style="" vertex="1" parent="4">
          <mxGeometry x="85" y="110" width="110" height="50" as="geometry" />
        </mxCell>
        <mxCell id="UzI9dB23VL0UUhLrd2TG-114" value="Заведение клиента&#xa;в системе" style="" vertex="1" parent="4">
          <mxGeometry x="77.5" y="202" width="125" height="50" as="geometry" />
        </mxCell>
        <mxCell id="UzI9dB23VL0UUhLrd2TG-137" style="edgeStyle=orthogonalEdgeStyle;rounded=0;orthogonalLoop=1;jettySize=auto;html=1;entryX=1;entryY=0.5;entryDx=0;entryDy=0;" edge="1" parent="4" source="UzI9dB23VL0UUhLrd2TG-121" target="UzI9dB23VL0UUhLrd2TG-136">
          <mxGeometry relative="1" as="geometry">
            <Array as="points">
              <mxPoint x="223" y="317" />
              <mxPoint x="223" y="502" />
            </Array>
          </mxGeometry>
        </mxCell>
        <mxCell id="UzI9dB23VL0UUhLrd2TG-121" value="Акцепт" style="rhombus;fillColor=#ffffc0;strokeColor=#ff0000;" vertex="1" parent="4">
          <mxGeometry x="100" y="297" width="80" height="40" as="geometry" />
        </mxCell>
        <mxCell id="UzI9dB23VL0UUhLrd2TG-125" value="Заведение нового участка в системе" style="rounded=0;whiteSpace=wrap;html=1;" vertex="1" parent="4">
          <mxGeometry x="80" y="382" width="120" height="60" as="geometry" />
        </mxCell>
        <mxCell id="UzI9dB23VL0UUhLrd2TG-136" value="Выбор существующего участка" style="whiteSpace=wrap;html=1;" vertex="1" parent="4">
          <mxGeometry x="80" y="472" width="120" height="60" as="geometry" />
        </mxCell>
        <mxCell id="UzI9dB23VL0UUhLrd2TG-76" value="Thread 1" style="swimlane;whiteSpace=wrap" vertex="1" parent="1">
          <mxGeometry x="150" y="1082" width="280" height="570" as="geometry" />
        </mxCell>
        <mxCell id="UzI9dB23VL0UUhLrd2TG-77" value="" style="ellipse;shape=startState;fillColor=#000000;strokeColor=#ff0000;" vertex="1" parent="UzI9dB23VL0UUhLrd2TG-76">
          <mxGeometry x="100" y="40" width="30" height="30" as="geometry" />
        </mxCell>
        <mxCell id="UzI9dB23VL0UUhLrd2TG-78" value="" style="edgeStyle=elbowEdgeStyle;elbow=horizontal;verticalAlign=bottom;endArrow=open;endSize=8;strokeColor=#FF0000;endFill=1;rounded=0" edge="1" parent="UzI9dB23VL0UUhLrd2TG-76" source="UzI9dB23VL0UUhLrd2TG-77" target="UzI9dB23VL0UUhLrd2TG-79">
          <mxGeometry x="100" y="40" as="geometry">
            <mxPoint x="115" y="110" as="targetPoint" />
          </mxGeometry>
        </mxCell>
        <mxCell id="UzI9dB23VL0UUhLrd2TG-79" value="idle" style="" vertex="1" parent="UzI9dB23VL0UUhLrd2TG-76">
          <mxGeometry x="60" y="110" width="110" height="50" as="geometry" />
        </mxCell>
        <mxCell id="UzI9dB23VL0UUhLrd2TG-80" value="user action" style="" vertex="1" parent="UzI9dB23VL0UUhLrd2TG-76">
          <mxGeometry x="60" y="220" width="110" height="50" as="geometry" />
        </mxCell>
        <mxCell id="UzI9dB23VL0UUhLrd2TG-81" value="" style="endArrow=open;strokeColor=#FF0000;endFill=1;rounded=0" edge="1" parent="UzI9dB23VL0UUhLrd2TG-76" source="UzI9dB23VL0UUhLrd2TG-79" target="UzI9dB23VL0UUhLrd2TG-80">
          <mxGeometry relative="1" as="geometry" />
        </mxCell>
        <mxCell id="UzI9dB23VL0UUhLrd2TG-82" value="post command" style="" vertex="1" parent="UzI9dB23VL0UUhLrd2TG-76">
          <mxGeometry x="60" y="325" width="110" height="50" as="geometry" />
        </mxCell>
        <mxCell id="UzI9dB23VL0UUhLrd2TG-83" value="" style="endArrow=open;strokeColor=#FF0000;endFill=1;rounded=0" edge="1" parent="UzI9dB23VL0UUhLrd2TG-76" source="UzI9dB23VL0UUhLrd2TG-80" target="UzI9dB23VL0UUhLrd2TG-82">
          <mxGeometry relative="1" as="geometry" />
        </mxCell>
        <mxCell id="UzI9dB23VL0UUhLrd2TG-84" value="" style="edgeStyle=elbowEdgeStyle;elbow=horizontal;strokeColor=#FF0000;endArrow=open;endFill=1;rounded=0" edge="1" parent="UzI9dB23VL0UUhLrd2TG-76" source="UzI9dB23VL0UUhLrd2TG-82" target="UzI9dB23VL0UUhLrd2TG-79">
          <mxGeometry width="100" height="100" relative="1" as="geometry">
            <mxPoint x="160" y="290" as="sourcePoint" />
            <mxPoint x="260" y="190" as="targetPoint" />
            <Array as="points">
              <mxPoint x="30" y="250" />
            </Array>
          </mxGeometry>
        </mxCell>
        <mxCell id="UzI9dB23VL0UUhLrd2TG-85" value="Thread 2" style="swimlane;whiteSpace=wrap" vertex="1" parent="1">
          <mxGeometry x="430" y="1082" width="280" height="570" as="geometry" />
        </mxCell>
        <mxCell id="UzI9dB23VL0UUhLrd2TG-86" value="" style="ellipse;shape=startState;fillColor=#000000;strokeColor=#ff0000;" vertex="1" parent="UzI9dB23VL0UUhLrd2TG-85">
          <mxGeometry x="60" y="40" width="30" height="30" as="geometry" />
        </mxCell>
        <mxCell id="UzI9dB23VL0UUhLrd2TG-87" value="" style="edgeStyle=elbowEdgeStyle;elbow=horizontal;verticalAlign=bottom;endArrow=open;endSize=8;strokeColor=#FF0000;endFill=1;rounded=0" edge="1" parent="UzI9dB23VL0UUhLrd2TG-85" source="UzI9dB23VL0UUhLrd2TG-86" target="UzI9dB23VL0UUhLrd2TG-88">
          <mxGeometry x="40" y="20" as="geometry">
            <mxPoint x="55" y="90" as="targetPoint" />
          </mxGeometry>
        </mxCell>
        <mxCell id="UzI9dB23VL0UUhLrd2TG-88" value="idle" style="" vertex="1" parent="UzI9dB23VL0UUhLrd2TG-85">
          <mxGeometry x="20" y="110" width="110" height="50" as="geometry" />
        </mxCell>
        <mxCell id="UzI9dB23VL0UUhLrd2TG-89" value="check for &#xa;new commands" style="" vertex="1" parent="UzI9dB23VL0UUhLrd2TG-85">
          <mxGeometry x="20" y="220" width="110" height="50" as="geometry" />
        </mxCell>
        <mxCell id="UzI9dB23VL0UUhLrd2TG-90" value="" style="endArrow=open;strokeColor=#FF0000;endFill=1;rounded=0" edge="1" parent="UzI9dB23VL0UUhLrd2TG-85" source="UzI9dB23VL0UUhLrd2TG-88" target="UzI9dB23VL0UUhLrd2TG-89">
          <mxGeometry relative="1" as="geometry" />
        </mxCell>
        <mxCell id="UzI9dB23VL0UUhLrd2TG-91" value="command queue" style="" vertex="1" parent="UzI9dB23VL0UUhLrd2TG-85">
          <mxGeometry x="20" y="325" width="110" height="50" as="geometry" />
        </mxCell>
        <mxCell id="UzI9dB23VL0UUhLrd2TG-92" value="" style="endArrow=open;strokeColor=#FF0000;endFill=1;rounded=0" edge="1" parent="UzI9dB23VL0UUhLrd2TG-85" source="UzI9dB23VL0UUhLrd2TG-89" target="UzI9dB23VL0UUhLrd2TG-91">
          <mxGeometry relative="1" as="geometry" />
        </mxCell>
        <mxCell id="UzI9dB23VL0UUhLrd2TG-93" value="queue empty" style="rhombus;fillColor=#ffffc0;strokeColor=#ff0000;" vertex="1" parent="UzI9dB23VL0UUhLrd2TG-85">
          <mxGeometry x="150" y="225" width="80" height="40" as="geometry" />
        </mxCell>
        <mxCell id="UzI9dB23VL0UUhLrd2TG-94" value="yes" style="edgeStyle=elbowEdgeStyle;elbow=horizontal;align=left;verticalAlign=bottom;endArrow=open;endSize=8;strokeColor=#FF0000;exitX=0.5;exitY=0;endFill=1;rounded=0;entryX=0.75;entryY=0.5;entryPerimeter=0" edge="1" parent="UzI9dB23VL0UUhLrd2TG-85" source="UzI9dB23VL0UUhLrd2TG-93" target="UzI9dB23VL0UUhLrd2TG-97">
          <mxGeometry x="-1" relative="1" as="geometry">
            <mxPoint x="160" y="150" as="targetPoint" />
            <Array as="points">
              <mxPoint x="190" y="180" />
            </Array>
          </mxGeometry>
        </mxCell>
        <mxCell id="UzI9dB23VL0UUhLrd2TG-95" value="no" style="edgeStyle=elbowEdgeStyle;elbow=horizontal;align=left;verticalAlign=top;endArrow=open;endSize=8;strokeColor=#FF0000;endFill=1;rounded=0" edge="1" parent="UzI9dB23VL0UUhLrd2TG-85" source="UzI9dB23VL0UUhLrd2TG-93" target="UzI9dB23VL0UUhLrd2TG-99">
          <mxGeometry x="-1" relative="1" as="geometry">
            <mxPoint x="190" y="305" as="targetPoint" />
          </mxGeometry>
        </mxCell>
        <mxCell id="UzI9dB23VL0UUhLrd2TG-96" value="" style="endArrow=open;strokeColor=#FF0000;endFill=1;rounded=0" edge="1" parent="UzI9dB23VL0UUhLrd2TG-85" source="UzI9dB23VL0UUhLrd2TG-89" target="UzI9dB23VL0UUhLrd2TG-93">
          <mxGeometry relative="1" as="geometry" />
        </mxCell>
        <mxCell id="UzI9dB23VL0UUhLrd2TG-97" value="" style="shape=line;strokeWidth=6;strokeColor=#ff0000;rotation=90" vertex="1" parent="UzI9dB23VL0UUhLrd2TG-85">
          <mxGeometry x="130" y="127.5" width="50" height="15" as="geometry" />
        </mxCell>
        <mxCell id="UzI9dB23VL0UUhLrd2TG-98" value="" style="edgeStyle=elbowEdgeStyle;elbow=horizontal;verticalAlign=bottom;endArrow=open;endSize=8;strokeColor=#FF0000;endFill=1;rounded=0" edge="1" parent="UzI9dB23VL0UUhLrd2TG-85" source="UzI9dB23VL0UUhLrd2TG-97" target="UzI9dB23VL0UUhLrd2TG-88">
          <mxGeometry x="130" y="90" as="geometry">
            <mxPoint x="230" y="140" as="targetPoint" />
          </mxGeometry>
        </mxCell>
        <mxCell id="UzI9dB23VL0UUhLrd2TG-99" value="dispatch&#xa;command&#xa;worker thread" style="" vertex="1" parent="UzI9dB23VL0UUhLrd2TG-85">
          <mxGeometry x="140" y="325" width="110" height="50" as="geometry" />
        </mxCell>
        <mxCell id="UzI9dB23VL0UUhLrd2TG-100" value="critical&#xa;section" style="shape=note;whiteSpace=wrap;size=17" vertex="1" parent="UzI9dB23VL0UUhLrd2TG-85">
          <mxGeometry x="105" y="490" width="100" height="50" as="geometry" />
        </mxCell>
        <mxCell id="UzI9dB23VL0UUhLrd2TG-101" value="" style="endArrow=none;strokeColor=#FF0000;endFill=0;rounded=0;dashed=1" edge="1" parent="UzI9dB23VL0UUhLrd2TG-85" source="UzI9dB23VL0UUhLrd2TG-91" target="UzI9dB23VL0UUhLrd2TG-100">
          <mxGeometry relative="1" as="geometry" />
        </mxCell>
        <mxCell id="UzI9dB23VL0UUhLrd2TG-102" value="" style="whiteSpace=wrap;strokeColor=#FF0000;fillColor=#FF0000" vertex="1" parent="UzI9dB23VL0UUhLrd2TG-85">
          <mxGeometry x="245" y="395" width="5" height="45" as="geometry" />
        </mxCell>
        <mxCell id="UzI9dB23VL0UUhLrd2TG-103" value="" style="edgeStyle=elbowEdgeStyle;elbow=horizontal;entryX=0;entryY=0.5;strokeColor=#FF0000;endArrow=open;endFill=1;rounded=0" edge="1" parent="UzI9dB23VL0UUhLrd2TG-85" source="UzI9dB23VL0UUhLrd2TG-99" target="UzI9dB23VL0UUhLrd2TG-102">
          <mxGeometry width="100" height="100" relative="1" as="geometry">
            <mxPoint x="60" y="480" as="sourcePoint" />
            <mxPoint x="160" y="380" as="targetPoint" />
            <Array as="points">
              <mxPoint x="195" y="400" />
            </Array>
          </mxGeometry>
        </mxCell>
        <mxCell id="UzI9dB23VL0UUhLrd2TG-104" value="Thread 3" style="swimlane;whiteSpace=wrap" vertex="1" parent="1">
          <mxGeometry x="710" y="1082" width="280" height="570" as="geometry" />
        </mxCell>
        <mxCell id="UzI9dB23VL0UUhLrd2TG-105" value="process&#xa;command" style="" vertex="1" parent="UzI9dB23VL0UUhLrd2TG-104">
          <mxGeometry x="90" y="405" width="110" height="50" as="geometry" />
        </mxCell>
        <mxCell id="UzI9dB23VL0UUhLrd2TG-106" value="" style="edgeStyle=elbowEdgeStyle;elbow=horizontal;strokeColor=#FF0000;endArrow=open;endFill=1;rounded=0;entryX=0.25;entryY=0.5;entryPerimeter=0" edge="1" parent="UzI9dB23VL0UUhLrd2TG-104" target="UzI9dB23VL0UUhLrd2TG-97">
          <mxGeometry width="100" height="100" relative="1" as="geometry">
            <mxPoint x="-30" y="410" as="sourcePoint" />
            <mxPoint x="-120" y="120" as="targetPoint" />
            <Array as="points">
              <mxPoint x="-10" y="135" />
            </Array>
          </mxGeometry>
        </mxCell>
        <mxCell id="UzI9dB23VL0UUhLrd2TG-107" value="" style="edgeStyle=none;strokeColor=#FF0000;endArrow=open;endFill=1;rounded=0" edge="1" parent="UzI9dB23VL0UUhLrd2TG-104" target="UzI9dB23VL0UUhLrd2TG-105">
          <mxGeometry width="100" height="100" relative="1" as="geometry">
            <mxPoint x="-30" y="429.5" as="sourcePoint" />
            <mxPoint x="90" y="429.5" as="targetPoint" />
          </mxGeometry>
        </mxCell>
        <mxCell id="UzI9dB23VL0UUhLrd2TG-108" value="" style="ellipse;shape=endState;fillColor=#000000;strokeColor=#ff0000" vertex="1" parent="UzI9dB23VL0UUhLrd2TG-104">
          <mxGeometry x="130" y="500" width="30" height="30" as="geometry" />
        </mxCell>
        <mxCell id="UzI9dB23VL0UUhLrd2TG-109" value="" style="endArrow=open;strokeColor=#FF0000;endFill=1;rounded=0" edge="1" parent="UzI9dB23VL0UUhLrd2TG-104" source="UzI9dB23VL0UUhLrd2TG-105" target="UzI9dB23VL0UUhLrd2TG-108">
          <mxGeometry relative="1" as="geometry" />
        </mxCell>
        <mxCell id="UzI9dB23VL0UUhLrd2TG-110" value="" style="endArrow=open;strokeColor=#FF0000;endFill=1;rounded=0" edge="1" parent="1" source="UzI9dB23VL0UUhLrd2TG-82" target="UzI9dB23VL0UUhLrd2TG-91">
          <mxGeometry relative="1" as="geometry" />
        </mxCell>
        <mxCell id="UzI9dB23VL0UUhLrd2TG-111" value="Регистрация клиента" style="text;html=1;align=center;verticalAlign=middle;resizable=0;points=[];autosize=1;" vertex="1" parent="1">
          <mxGeometry x="500" y="80" width="140" height="20" as="geometry" />
        </mxCell>
        <mxCell id="9" value="" style="endArrow=open;strokeColor=#FF0000;endFill=1;rounded=0;entryX=0;entryY=0.5;entryDx=0;entryDy=0;" parent="1" source="7" target="UzI9dB23VL0UUhLrd2TG-112" edge="1">
          <mxGeometry relative="1" as="geometry" />
        </mxCell>
        <mxCell id="UzI9dB23VL0UUhLrd2TG-113" style="edgeStyle=orthogonalEdgeStyle;rounded=0;orthogonalLoop=1;jettySize=auto;html=1;" edge="1" parent="1" source="UzI9dB23VL0UUhLrd2TG-112">
          <mxGeometry relative="1" as="geometry">
            <mxPoint x="864.5" y="330" as="targetPoint" />
          </mxGeometry>
        </mxCell>
        <mxCell id="UzI9dB23VL0UUhLrd2TG-115" style="edgeStyle=orthogonalEdgeStyle;rounded=0;orthogonalLoop=1;jettySize=auto;html=1;" edge="1" parent="1" source="UzI9dB23VL0UUhLrd2TG-114">
          <mxGeometry relative="1" as="geometry">
            <mxPoint x="640" y="355" as="targetPoint" />
          </mxGeometry>
        </mxCell>
        <mxCell id="UzI9dB23VL0UUhLrd2TG-122" style="edgeStyle=orthogonalEdgeStyle;rounded=0;orthogonalLoop=1;jettySize=auto;html=1;entryX=0;entryY=0.5;entryDx=0;entryDy=0;" edge="1" parent="1" source="UzI9dB23VL0UUhLrd2TG-118" target="UzI9dB23VL0UUhLrd2TG-121">
          <mxGeometry relative="1" as="geometry" />
        </mxCell>
        <mxCell id="UzI9dB23VL0UUhLrd2TG-123" style="edgeStyle=orthogonalEdgeStyle;rounded=0;orthogonalLoop=1;jettySize=auto;html=1;" edge="1" parent="1" source="UzI9dB23VL0UUhLrd2TG-121">
          <mxGeometry relative="1" as="geometry">
            <mxPoint x="860" y="510" as="targetPoint" />
          </mxGeometry>
        </mxCell>
        <mxCell id="UzI9dB23VL0UUhLrd2TG-124" value="Да" style="text;html=1;align=center;verticalAlign=middle;resizable=0;points=[];autosize=1;" vertex="1" parent="1">
          <mxGeometry x="855" y="470" width="30" height="20" as="geometry" />
        </mxCell>
        <mxCell id="UzI9dB23VL0UUhLrd2TG-127" value="" style="edgeStyle=orthogonalEdgeStyle;rounded=0;orthogonalLoop=1;jettySize=auto;html=1;" edge="1" parent="1" source="UzI9dB23VL0UUhLrd2TG-125" target="UzI9dB23VL0UUhLrd2TG-126">
          <mxGeometry relative="1" as="geometry" />
        </mxCell>
        <mxCell id="UzI9dB23VL0UUhLrd2TG-134" style="edgeStyle=orthogonalEdgeStyle;rounded=0;orthogonalLoop=1;jettySize=auto;html=1;entryX=1;entryY=0.5;entryDx=0;entryDy=0;" edge="1" parent="1" source="UzI9dB23VL0UUhLrd2TG-132" target="UzI9dB23VL0UUhLrd2TG-135">
          <mxGeometry relative="1" as="geometry">
            <mxPoint x="310" y="820" as="targetPoint" />
          </mxGeometry>
        </mxCell>
        <mxCell id="UzI9dB23VL0UUhLrd2TG-138" value="Нет" style="text;html=1;align=center;verticalAlign=middle;resizable=0;points=[];autosize=1;" vertex="1" parent="1">
          <mxGeometry x="940" y="510" width="40" height="20" as="geometry" />
        </mxCell>
        <mxCell id="UzI9dB23VL0UUhLrd2TG-139" style="edgeStyle=orthogonalEdgeStyle;rounded=0;orthogonalLoop=1;jettySize=auto;html=1;entryX=1;entryY=0.5;entryDx=0;entryDy=0;" edge="1" parent="1" source="UzI9dB23VL0UUhLrd2TG-136" target="UzI9dB23VL0UUhLrd2TG-128">
          <mxGeometry relative="1" as="geometry" />
        </mxCell>
      </root>
    </mxGraphModel>
  </diagram>
</mxfile>
